<svg width="150" height="47" viewBox="0 0 150 47" fill="none" xmlns="http://www.w3.org/2000/svg">
<path d="M79.0573 11.8088C79.0573 13.5025 77.6984 14.8669 76.0114 14.8669C74.3244 14.8669 72.9655 13.5025 72.9655 11.8088C72.9655 10.1151 74.2776 8.75075 76.0114 8.75075C77.7452 8.7978 79.0573 10.1622 79.0573 11.8088ZM66.4987 17.972C66.4987 18.2543 66.4987 18.7247 66.4987 18.7247C66.4987 18.7247 65.0461 16.8428 61.9533 16.8428C56.8455 16.8428 52.8624 20.7477 52.8624 26.1582C52.8624 31.5215 56.7987 35.4735 61.9533 35.4735C65.0929 35.4735 66.4987 33.5445 66.4987 33.5445V34.3443C66.4987 34.7207 66.7799 35.003 67.1548 35.003H70.9505V17.3133C70.9505 17.3133 67.4828 17.3133 67.1548 17.3133C66.7799 17.3133 66.4987 17.6426 66.4987 17.972ZM66.4987 29.3103C65.7958 30.3453 64.39 31.2392 62.7031 31.2392C59.704 31.2392 57.4078 29.3574 57.4078 26.1582C57.4078 22.959 59.704 21.0771 62.7031 21.0771C64.3432 21.0771 65.8427 22.018 66.4987 23.006V29.3103ZM73.7621 17.3133H78.2607V35.003H73.7621V17.3133ZM140.96 16.8428C137.867 16.8428 136.414 18.7247 136.414 18.7247V8.7978H131.916V35.003C131.916 35.003 135.383 35.003 135.712 35.003C136.086 35.003 136.368 34.6737 136.368 34.3443V33.5445C136.368 33.5445 137.82 35.4735 140.913 35.4735C146.021 35.4735 150.004 31.5215 150.004 26.1582C150.004 20.7948 146.021 16.8428 140.96 16.8428ZM140.21 31.1922C138.476 31.1922 137.117 30.2983 136.414 29.2633V22.959C137.117 22.018 138.617 21.03 140.21 21.03C143.209 21.03 145.505 22.9119 145.505 26.1111C145.505 29.3103 143.209 31.1922 140.21 31.1922ZM129.573 24.5115V35.05H125.074V25.029C125.074 22.1121 124.137 20.9359 121.607 20.9359C120.248 20.9359 118.842 21.6416 117.951 22.6767V35.003H113.453V17.3133H117.014C117.389 17.3133 117.67 17.6426 117.67 17.972V18.7247C118.982 17.3604 120.716 16.8428 122.45 16.8428C124.418 16.8428 126.058 17.4074 127.37 18.5365C128.964 19.8539 129.573 21.5475 129.573 24.5115ZM102.534 16.8428C99.4416 16.8428 97.9889 18.7247 97.9889 18.7247V8.7978H93.4903V35.003C93.4903 35.003 96.958 35.003 97.286 35.003C97.6609 35.003 97.942 34.6737 97.942 34.3443V33.5445C97.942 33.5445 99.3947 35.4735 102.488 35.4735C107.595 35.4735 111.578 31.5215 111.578 26.1582C111.625 20.7948 107.642 16.8428 102.534 16.8428ZM101.785 31.1922C100.051 31.1922 98.6918 30.2983 97.9889 29.2633V22.959C98.6918 22.018 100.191 21.03 101.785 21.03C104.784 21.03 107.08 22.9119 107.08 26.1111C107.08 29.3103 104.784 31.1922 101.785 31.1922ZM89.6009 16.8428C90.9599 16.8428 91.6628 17.0781 91.6628 17.0781V21.2653C91.6628 21.2653 87.9139 19.995 85.5709 22.6767V35.05H81.0723V17.3133C81.0723 17.3133 84.54 17.3133 84.868 17.3133C85.2429 17.3133 85.5241 17.6426 85.5241 17.972V18.7247C86.3675 17.7367 88.1951 16.8428 89.6009 16.8428ZM42.8811 33.4034C42.6468 32.8388 42.4125 32.2272 42.1782 31.7097C41.8033 30.8629 41.4285 30.0631 41.1004 29.3103L41.0536 29.2633C37.8202 22.2062 34.3525 15.0551 30.6974 7.998L30.5569 7.71572C30.182 7.01001 29.8071 6.25726 29.4322 5.5045C28.9636 4.65766 28.495 3.76376 27.7452 2.91692C26.2457 1.03503 24.0901 0 21.794 0C19.451 0 17.3422 1.03504 15.7958 2.82282C15.0929 3.66967 14.5775 4.56356 14.1089 5.41041C13.734 6.16316 13.3591 6.91592 12.9842 7.62162L12.8436 7.9039C9.23539 14.961 5.72087 22.1121 2.4875 29.1692L2.44064 29.2633C2.11262 30.016 1.73774 30.8158 1.36286 31.6627C1.12855 32.1802 0.894252 32.7447 0.65995 33.3564C0.0507654 35.0971 -0.136676 36.7437 0.0976257 38.4374C0.61309 41.966 2.95611 44.9299 6.18947 46.2472C7.40784 46.7648 8.67307 47 9.98516 47C10.36 47 10.8286 46.9529 11.2035 46.9059C12.7499 46.7177 14.3432 46.2002 15.8896 45.3063C17.8108 44.2242 19.6384 42.6717 21.7003 40.4134C23.7621 42.6717 25.6365 44.2242 27.5109 45.3063C29.0573 46.2002 30.6506 46.7177 32.197 46.9059C32.5718 46.9529 33.0405 47 33.4153 47C34.7274 47 36.0395 46.7648 37.211 46.2472C40.4913 44.9299 42.7874 41.9189 43.3029 38.4374C43.6778 36.7908 43.4903 35.1441 42.8811 33.4034ZM21.7471 35.8498C19.2167 32.6507 17.5765 29.6396 17.0142 27.0991C16.7799 26.017 16.7331 25.0761 16.8736 24.2292C16.9674 23.4765 17.2485 22.8178 17.6234 22.2533C18.5137 20.983 20.0133 20.1832 21.7471 20.1832C23.4809 20.1832 25.0273 20.9359 25.8708 22.2533C26.2457 22.8178 26.5269 23.4765 26.6206 24.2292C26.7612 25.0761 26.7143 26.0641 26.48 27.0991C25.9177 29.5926 24.2776 32.6036 21.7471 35.8498ZM40.4444 38.0611C40.1164 40.5075 38.4763 42.6246 36.1801 43.5656C35.0554 44.036 33.8371 44.1772 32.6187 44.036C31.4472 43.8949 30.2757 43.5185 29.0573 42.8128C27.3704 41.8719 25.6834 40.4134 23.7152 38.2492C26.808 34.4384 28.6824 30.957 29.3853 27.8519C29.7134 26.3934 29.7602 25.0761 29.6196 23.8529C29.4322 22.6767 29.0105 21.5946 28.3544 20.6537C26.9018 18.5365 24.465 17.3133 21.7471 17.3133C19.0292 17.3133 16.5925 18.5836 15.1398 20.6537C14.4838 21.5946 14.062 22.6767 13.8746 23.8529C13.6871 25.0761 13.734 26.4404 14.1089 27.8519C14.8118 30.957 16.7331 34.4855 19.779 38.2963C17.8577 40.4605 16.1239 41.9189 14.4369 42.8599C13.2185 43.5656 12.047 43.9419 10.8755 44.0831C9.61028 44.2242 8.39191 44.036 7.31412 43.6126C5.01796 42.6717 3.37785 40.5546 3.04983 38.1081C2.90925 36.9319 3.00297 35.7558 3.47157 34.4384C3.61215 33.968 3.84645 33.4975 4.08076 32.9329C4.40878 32.1802 4.78366 31.3804 5.15854 30.5806L5.2054 30.4865C8.43877 23.4765 11.9064 16.3253 15.5147 9.36236L15.6553 9.08008C16.0301 8.37437 16.405 7.62162 16.7799 6.91592C17.1548 6.16316 17.5765 5.45746 18.092 4.84585C19.0761 3.71672 20.3882 3.1051 21.8408 3.1051C23.2935 3.1051 24.6056 3.71672 25.5897 4.84585C26.1051 5.45746 26.5269 6.16316 26.9018 6.91592C27.2766 7.62162 27.6515 8.37437 28.0264 9.08008L28.167 9.36236C31.7284 16.3724 35.196 23.5235 38.4294 30.5335V30.5806C38.8043 31.3333 39.1323 32.1802 39.5072 32.9329C39.7415 33.4975 39.9758 33.968 40.1164 34.4384C40.4912 35.6617 40.6318 36.8378 40.4444 38.0611Z" fill="#FF385C"/>
</svg>
