<svg width="45" height="45" viewBox="0 0 45 45" fill="none" xmlns="http://www.w3.org/2000/svg">
<path d="M21.5625 39.375H15C14.0054 39.375 13.0516 38.9799 12.3483 38.2766C11.6451 37.5734 11.25 36.6196 11.25 35.625V9.375C11.25 8.38044 11.6451 7.42661 12.3483 6.72335C13.0516 6.02009 14.0054 5.625 15 5.625H30C30.9946 5.625 31.9484 6.02009 32.6516 6.72335C33.3549 7.42661 33.75 8.38044 33.75 9.375V24.375M37.5 39.375L41.25 35.625L37.5 31.875M31.875 31.875L28.125 35.625L31.875 39.375M20.625 7.5H24.375M22.5 31.875V31.8938" stroke="#195359" stroke-width="3" stroke-linecap="round" stroke-linejoin="round"/>
</svg>
