<svg width="45" height="45" viewBox="0 0 45 45" fill="none" xmlns="http://www.w3.org/2000/svg">
<path opacity="0.2" d="M36.5625 15.4688H26.7188V5.625L36.5625 15.4688Z" fill="#195359"/>
<path d="M8.4375 21.0938C8.81046 21.0938 9.16815 20.9456 9.43187 20.6819C9.69559 20.4181 9.84375 20.0605 9.84375 19.6875V7.03125H25.3125V15.4688C25.3125 15.8417 25.4607 16.1994 25.7244 16.4631C25.9881 16.7268 26.3458 16.875 26.7188 16.875H35.1562V19.6875C35.1562 20.0605 35.3044 20.4181 35.5681 20.6819C35.8319 20.9456 36.1895 21.0938 36.5625 21.0938C36.9355 21.0938 37.2931 20.9456 37.5569 20.6819C37.8206 20.4181 37.9688 20.0605 37.9688 19.6875V15.4688C37.9689 15.284 37.9326 15.1011 37.8621 14.9304C37.7915 14.7597 37.688 14.6045 37.5574 14.4738L27.7137 4.63008C27.583 4.49953 27.4278 4.39601 27.2571 4.32543C27.0864 4.25486 26.9035 4.21861 26.7188 4.21875H9.84375C9.09783 4.21875 8.38246 4.51507 7.85501 5.04251C7.32757 5.56996 7.03125 6.28533 7.03125 7.03125V19.6875C7.03125 20.0605 7.17941 20.4181 7.44313 20.6819C7.70685 20.9456 8.06454 21.0938 8.4375 21.0938ZM28.125 9.01934L33.1682 14.0625H28.125V9.01934ZM40.0781 36.5625C40.0781 36.9355 39.93 37.2931 39.6662 37.5569C39.4025 37.8206 39.0448 37.9688 38.6719 37.9688H33.75C33.377 37.9688 33.0194 37.8206 32.7556 37.5569C32.4919 37.2931 32.3438 36.9355 32.3438 36.5625V26.7188C32.3438 26.3458 32.4919 25.9881 32.7556 25.7244C33.0194 25.4607 33.377 25.3125 33.75 25.3125C34.123 25.3125 34.4806 25.4607 34.7444 25.7244C35.0081 25.9881 35.1562 26.3458 35.1562 26.7188V35.1562H38.6719C39.0448 35.1562 39.4025 35.3044 39.6662 35.5681C39.93 35.8319 40.0781 36.1895 40.0781 36.5625ZM16.1402 34.5076C16.0854 35.0455 15.9121 35.5645 15.6328 36.0274C15.3535 36.4903 14.9751 36.8856 14.5248 37.1848C13.6125 37.793 12.4805 37.9688 11.4504 37.9688C10.552 37.964 9.65784 37.8459 8.78906 37.6172C8.43413 37.5132 8.13443 37.2736 7.95489 36.9503C7.77535 36.627 7.73041 36.2459 7.82982 35.8897C7.92922 35.5334 8.16496 35.2307 8.48598 35.047C8.807 34.8634 9.18744 34.8136 9.54492 34.9084C10.3148 35.1193 12.1729 35.383 12.9814 34.8451C13.1379 34.7414 13.3031 34.5779 13.3576 34.1543C13.4191 33.685 13.2328 33.4336 11.1111 32.8201C9.46758 32.3455 6.7166 31.5492 7.06816 28.7578C7.12288 28.2305 7.29298 27.7218 7.56639 27.2676C7.8398 26.8134 8.20982 26.425 8.6502 26.1299C10.7314 24.7236 14.0502 25.548 14.4211 25.6447C14.5998 25.6918 14.7674 25.7736 14.9145 25.8855C15.0615 25.9974 15.1851 26.1371 15.2781 26.2968C15.3712 26.4564 15.4318 26.6328 15.4567 26.8159C15.4816 26.999 15.4701 27.1852 15.423 27.3639C15.376 27.5425 15.2941 27.7102 15.1823 27.8572C15.0704 28.0043 14.9306 28.1278 14.771 28.2209C14.6114 28.3139 14.435 28.3746 14.2519 28.3995C14.0688 28.4244 13.8826 28.4129 13.7039 28.3658C12.9146 28.1602 11.0285 27.9158 10.2199 28.4643C10.1139 28.5358 10.0267 28.6317 9.96549 28.744C9.90431 28.8562 9.871 28.9815 9.86836 29.1094C9.84727 29.2676 9.84375 29.2992 10.0652 29.4434C10.4713 29.7053 11.1973 29.9145 11.9021 30.1184C13.623 30.6158 16.534 31.4648 16.1402 34.5076ZM28.6207 35.0754C29.2204 34.0302 29.5345 32.8456 29.5312 31.6406C29.5312 28.1514 27.0088 25.3125 23.9062 25.3125C20.8037 25.3125 18.2812 28.1514 18.2812 31.6406C18.2812 35.1299 20.8037 37.9688 23.9062 37.9688C24.8996 37.9652 25.8705 37.6733 26.7012 37.1285L27.1301 37.5574C27.3939 37.8211 27.7517 37.9691 28.1247 37.9689C28.4977 37.9687 28.8554 37.8204 29.119 37.5565C29.3827 37.2927 29.5307 36.9349 29.5305 36.5619C29.5304 36.1889 29.382 35.8312 29.1182 35.5676L28.6207 35.0754ZM23.9062 35.1562C22.3559 35.1562 21.0938 33.5742 21.0938 31.6406C21.0938 29.707 22.3559 28.125 23.9062 28.125C25.4566 28.125 26.7188 29.707 26.7188 31.6406C26.719 32.0888 26.649 32.5342 26.5113 32.9607L26.3057 32.7551C26.175 32.6245 26.0199 32.521 25.8493 32.4504C25.6786 32.3798 25.4957 32.3435 25.311 32.3436C24.938 32.3438 24.5803 32.4921 24.3167 32.756C24.0531 33.0198 23.905 33.3776 23.9052 33.7506C23.9054 34.1236 24.0537 34.4813 24.3176 34.7449L24.6129 35.0385C24.3851 35.1148 24.1465 35.1546 23.9062 35.1562Z" fill="#195359"/>
<path d="M28.125 9.01934L33.1682 14.0625H28.125V9.01934Z" fill="#195359"/>
</svg>
