<svg width="37" height="37" viewBox="0 0 37 37" fill="none" xmlns="http://www.w3.org/2000/svg">
<path fill-rule="evenodd" clip-rule="evenodd" d="M2.3125 18.5C2.3125 18.1933 2.43432 17.8993 2.65116 17.6824C2.868 17.4656 3.16209 17.3438 3.46875 17.3438L30.7401 17.3438L23.4626 10.0686C23.2455 9.85152 23.1235 9.55705 23.1235 9.25C23.1235 8.94296 23.2455 8.64849 23.4626 8.43138C23.6797 8.21426 23.9742 8.09229 24.2812 8.09229C24.5883 8.09229 24.8828 8.21426 25.0999 8.43138L34.3499 17.6814C34.4576 17.7888 34.543 17.9164 34.6013 18.0569C34.6596 18.1973 34.6896 18.3479 34.6896 18.5C34.6896 18.6521 34.6596 18.8027 34.6013 18.9432C34.543 19.0836 34.4576 19.2112 34.3499 19.3186L25.0999 28.5686C24.8828 28.7857 24.5883 28.9077 24.2812 28.9077C23.9742 28.9077 23.6797 28.7857 23.4626 28.5686C23.2455 28.3515 23.1235 28.057 23.1235 27.75C23.1235 27.443 23.2455 27.1485 23.4626 26.9314L30.7401 19.6563L3.46875 19.6563C3.16209 19.6563 2.868 19.5344 2.65116 19.3176C2.43432 19.1008 2.3125 18.8067 2.3125 18.5Z" fill="black"/>
</svg>
