<svg width="45" height="45" viewBox="0 0 45 45" fill="none" xmlns="http://www.w3.org/2000/svg">
<path d="M35.1562 42.1875L32.2031 40.7812C29.8125 39.6562 28.125 37.125 28.125 34.4531V25.3125H42.1875V34.4531C42.1875 37.125 40.6406 39.6562 38.1094 40.7812L35.1562 42.1875ZM30.9375 28.125V34.4531C30.9375 36.1406 31.9219 37.5469 33.3281 38.25L35.1562 39.0937L36.9844 38.25C38.3906 37.5469 39.375 36 39.375 34.4531V28.125H30.9375Z" fill="#195359"/>
<path d="M30.9375 16.875C32.4908 16.875 33.75 15.6158 33.75 14.0625C33.75 12.5092 32.4908 11.25 30.9375 11.25C29.3842 11.25 28.125 12.5092 28.125 14.0625C28.125 15.6158 29.3842 16.875 30.9375 16.875Z" fill="#195359"/>
<path d="M29.5312 2.8125C22.5 2.8125 16.875 8.4375 16.875 15.4688C16.875 16.7344 17.0156 18 17.4375 19.125L2.8125 33.75V42.1875H11.25L25.3125 28.125L23.3438 26.1562L19.4062 30.0938L17.4375 28.125L15.4688 30.0938L17.4375 32.0625L15.1875 34.3125L13.2187 32.3438L11.25 34.3125L13.2187 36.2812L10.125 39.375H5.625V34.875L19.4062 21.0938L20.5312 19.9688L20.1094 18.2812C19.8281 17.2969 19.6875 16.4531 19.6875 15.4688C19.6875 9.98438 24.0469 5.625 29.5312 5.625C35.0156 5.625 39.375 9.98438 39.375 15.4688C39.375 17.5781 38.6719 19.5469 37.5469 21.0938H40.7812C41.625 19.4062 42.0469 17.4375 42.0469 15.4688C42.1875 8.4375 36.5625 2.8125 29.5312 2.8125Z" fill="#195359"/>
</svg>
