<svg width="45" height="45" viewBox="0 0 45 45" fill="none" xmlns="http://www.w3.org/2000/svg">
<path d="M22.5 4.21875C13.0377 4.21875 5.625 8.54297 5.625 14.0625V30.9375C5.625 36.457 13.0377 40.7812 22.5 40.7812C31.9623 40.7812 39.375 36.457 39.375 30.9375V14.0625C39.375 8.54297 31.9623 4.21875 22.5 4.21875ZM36.5625 22.5C36.5625 24.191 35.1773 25.9154 32.7639 27.232C30.0463 28.7139 26.4006 29.5312 22.5 29.5312C18.5994 29.5312 14.9537 28.7139 12.2361 27.232C9.82266 25.9154 8.4375 24.191 8.4375 22.5V19.575C11.4363 22.2117 16.5639 23.9062 22.5 23.9062C28.4361 23.9062 33.5637 22.2047 36.5625 19.575V22.5ZM12.2361 9.33047C14.9537 7.84863 18.5994 7.03125 22.5 7.03125C26.4006 7.03125 30.0463 7.84863 32.7639 9.33047C35.1773 10.6471 36.5625 12.3715 36.5625 14.0625C36.5625 15.7535 35.1773 17.4779 32.7639 18.7945C30.0463 20.2764 26.4006 21.0938 22.5 21.0938C18.5994 21.0938 14.9537 20.2764 12.2361 18.7945C9.82266 17.4779 8.4375 15.7535 8.4375 14.0625C8.4375 12.3715 9.82266 10.6471 12.2361 9.33047ZM32.7639 35.6695C30.0463 37.1514 26.4006 37.9688 22.5 37.9688C18.5994 37.9688 14.9537 37.1514 12.2361 35.6695C9.82266 34.3529 8.4375 32.6285 8.4375 30.9375V28.0125C11.4363 30.6492 16.5639 32.3438 22.5 32.3438C28.4361 32.3438 33.5637 30.6422 36.5625 28.0125V30.9375C36.5625 32.6285 35.1773 34.3529 32.7639 35.6695Z" fill="#195359"/>
</svg>
