<svg width="45" height="45" viewBox="0 0 45 45" fill="none" xmlns="http://www.w3.org/2000/svg">
<path d="M6.17992 38.6286L18.1124 26.6961M33.1387 21.3899L29.5668 32.1055C29.5098 32.2773 29.4122 32.4327 29.2823 32.5587C29.1524 32.6847 28.994 32.7775 28.8205 32.8293L6.92429 39.3374C6.72703 39.396 6.51747 39.3993 6.31843 39.3471C6.11938 39.2948 5.93848 39.189 5.79541 39.0411C5.65233 38.8932 5.55257 38.7089 5.50697 38.5082C5.46137 38.3075 5.47169 38.0982 5.53679 37.903L12.6468 16.5768C12.6977 16.4236 12.7811 16.2833 12.8911 16.1652C13.001 16.0471 13.1352 15.9541 13.2843 15.8924L23.3849 11.7336C23.5903 11.6488 23.8161 11.6267 24.034 11.6701C24.2519 11.7135 24.4521 11.8204 24.6093 11.9774L32.8668 20.2386C33.0145 20.3864 33.1182 20.5723 33.1663 20.7756C33.2143 20.979 33.2047 21.1917 33.1387 21.3899Z" stroke="#195359" stroke-width="3" stroke-linecap="round" stroke-linejoin="round"/>
<path d="M33.3599 20.7299L38.6624 15.4255C39.3654 14.7223 39.7603 13.7687 39.7603 12.7743C39.7603 11.7799 39.3654 10.8263 38.6624 10.123L34.6874 6.1443C34.3391 5.79592 33.9257 5.51956 33.4706 5.33101C33.0155 5.14246 32.5278 5.04541 32.0352 5.04541C31.5426 5.04541 31.0549 5.14246 30.5998 5.33101C30.1447 5.51956 29.7312 5.79592 29.383 6.1443L24.0805 11.4487M22.0893 22.7174C21.828 22.4563 21.5179 22.2492 21.1766 22.1079C20.8353 21.9666 20.4695 21.894 20.1002 21.8941C19.7308 21.8941 19.365 21.967 19.0238 22.1084C18.6826 22.2499 18.3726 22.4571 18.1114 22.7184C17.8503 22.9796 17.6432 23.2897 17.5019 23.631C17.3607 23.9723 17.288 24.3381 17.2881 24.7075C17.2882 25.0768 17.361 25.4426 17.5024 25.7838C17.6439 26.125 17.8511 26.435 18.1124 26.6962C18.64 27.2235 19.3555 27.5197 20.1015 27.5195C20.8475 27.5194 21.5628 27.2228 22.0902 26.6952C22.6176 26.1676 22.9137 25.4521 22.9136 24.7061C22.9134 23.9601 22.6169 23.2448 22.0893 22.7174Z" stroke="#195359" stroke-width="3" stroke-linecap="round" stroke-linejoin="round"/>
</svg>
