<svg width="45" height="45" viewBox="0 0 45 45" fill="none" xmlns="http://www.w3.org/2000/svg">
<g clip-path="url(#clip0_355_231)">
<path d="M27.1614 5.89317C27.64 6.02778 28.0455 6.34694 28.2888 6.78047C28.5321 7.214 28.5933 7.72642 28.4589 8.20505L20.1526 37.8075C20.0862 38.0447 19.9736 38.2664 19.8215 38.46C19.6693 38.6536 19.4805 38.8154 19.2658 38.936C19.0511 39.0567 18.8148 39.1339 18.5703 39.1632C18.3258 39.1925 18.0779 39.1734 17.8408 39.1069C17.6037 39.0404 17.382 38.9279 17.1883 38.7757C16.9947 38.6236 16.8329 38.4348 16.7123 38.2201C16.5916 38.0054 16.5144 37.7691 16.4851 37.5246C16.4558 37.2801 16.4749 37.0322 16.5414 36.795L24.8476 7.19255C24.9141 6.95521 25.0267 6.73329 25.179 6.5395C25.3312 6.34571 25.5202 6.18384 25.7351 6.06316C25.95 5.94247 26.1866 5.86534 26.4313 5.83617C26.6761 5.80701 26.9242 5.82638 27.1614 5.89317ZM13.5133 13.2188C13.8648 13.5704 14.0622 14.0472 14.0622 14.5444C14.0622 15.0416 13.8648 15.5184 13.5133 15.87L6.88515 22.5L13.5133 29.1282C13.6875 29.3023 13.8257 29.5089 13.92 29.7364C14.0143 29.9639 14.0629 30.2078 14.063 30.4541C14.0631 30.7003 14.0147 30.9442 13.9205 31.1718C13.8264 31.3994 13.6883 31.6062 13.5142 31.7804C13.3401 31.9546 13.1334 32.0928 12.9059 32.1871C12.6784 32.2814 12.4346 32.33 12.1883 32.3301C11.942 32.3302 11.6981 32.2818 11.4706 32.1876C11.243 32.0934 11.0362 31.9554 10.862 31.7813L2.9064 23.8257C2.55489 23.4741 2.35742 22.9972 2.35742 22.5C2.35742 22.0029 2.55489 21.526 2.9064 21.1744L10.862 13.2188C11.2136 12.8673 11.6905 12.6698 12.1876 12.6698C12.6848 12.6698 13.1617 12.8673 13.5133 13.2188ZM31.487 15.87C31.3079 15.6971 31.1651 15.4902 31.0668 15.2614C30.9686 15.0327 30.9168 14.7866 30.9147 14.5377C30.9125 14.2887 30.96 14.0418 31.0542 13.8114C31.1485 13.581 31.2877 13.3716 31.4638 13.1956C31.6398 13.0195 31.8492 12.8803 32.0796 12.786C32.31 12.6917 32.5569 12.6443 32.8059 12.6465C33.0549 12.6486 33.3009 12.7003 33.5297 12.7986C33.7584 12.8969 33.9653 13.0397 34.1383 13.2188L42.0939 21.1744C42.4454 21.526 42.6429 22.0029 42.6429 22.5C42.6429 22.9972 42.4454 23.4741 42.0939 23.8257L34.1383 31.7813C33.7864 32.1329 33.3094 32.3303 32.812 32.3301C32.3146 32.3299 31.8377 32.1322 31.4861 31.7804C31.1345 31.4285 30.9371 30.9515 30.9373 30.4541C30.9374 29.9567 31.1352 29.4797 31.487 29.1282L38.1151 22.5L31.487 15.87Z" fill="#195359"/>
</g>
<defs>
<clipPath id="clip0_355_231">
<rect width="45" height="45" fill="white"/>
</clipPath>
</defs>
</svg>
