<svg width="45" height="45" viewBox="0 0 45 45" fill="none" xmlns="http://www.w3.org/2000/svg">
<path d="M5.99988 26.6663V7.5C5.99988 6.50544 6.39497 5.55161 7.09823 4.84835C7.80149 4.14509 8.75532 3.75 9.74988 3.75H35.2499C36.2444 3.75 37.1983 4.14509 37.9015 4.84835C38.6048 5.55161 38.9999 6.50544 38.9999 7.5V26.6663M5.99988 26.6663H38.9999M5.99988 26.6663L3.22488 36.48C3.06727 37.0376 3.04102 37.6241 3.14819 38.1936C3.25536 38.763 3.49303 39.2999 3.84255 39.762C4.19207 40.2242 4.64393 40.599 5.16268 40.8572C5.68143 41.1154 6.25294 41.2498 6.83238 41.25H38.1674C38.7468 41.2498 39.3183 41.1154 39.8371 40.8572C40.3558 40.599 40.8077 40.2242 41.1572 39.762C41.5067 39.2999 41.7444 38.763 41.8516 38.1936C41.9587 37.6241 41.9325 37.0376 41.7749 36.48L38.9999 26.6663" stroke="#195359" stroke-width="2.8125"/>
<path d="M20.625 35.625H24.375M26.25 11.25L30 15L26.25 18.75M18.75 11.25L15 15L18.75 18.75" stroke="#195359" stroke-width="2.8125" stroke-linecap="round" stroke-linejoin="round"/>
</svg>
