<svg width="42" height="34" viewBox="0 0 42 34" fill="none" xmlns="http://www.w3.org/2000/svg">
<g opacity="0.2">
<path fill-rule="evenodd" clip-rule="evenodd" d="M23.6182 1.54414C24.0722 1.16563 24.5963 0.880279 25.1606 0.704375C25.7249 0.52847 26.3184 0.465462 26.907 0.518952C27.4957 0.572441 28.068 0.741379 28.5914 1.01611C29.1147 1.29085 29.5788 1.666 29.9572 2.12014L39.9562 14.1201C40.3513 14.5717 40.6521 15.0978 40.8408 15.6674C41.0296 16.237 41.1026 16.8385 41.0554 17.4367C41.0083 18.0349 40.842 18.6176 40.5663 19.1506C40.2906 19.6835 39.9111 20.156 39.4502 20.5401C38.9892 20.9242 38.4561 21.2123 37.8821 21.3874C37.3082 21.5624 36.705 21.6209 36.1082 21.5594C35.5113 21.4979 34.9327 21.3177 34.4065 21.0293C33.8803 20.7409 33.4171 20.3502 33.0442 19.8801L23.0422 7.88014C22.2787 6.96341 21.9105 5.78102 22.0185 4.59289C22.1265 3.40477 22.7019 2.30816 23.6182 1.54414Z" fill="black"/>
<path fill-rule="evenodd" clip-rule="evenodd" d="M23.6182 32.456C22.7019 31.692 22.1265 30.5954 22.0185 29.4073C21.9105 28.2192 22.2787 27.0368 23.0422 26.12L33.0442 14.12C33.8177 13.2359 34.9063 12.6892 36.0774 12.5969C37.2486 12.5046 38.4094 12.874 39.3119 13.626C40.2144 14.3781 40.787 15.4533 40.9074 16.6219C41.0277 17.7904 40.6864 18.9598 39.9562 19.88L29.9572 31.88C29.5788 32.3342 29.1147 32.7093 28.5914 32.9841C28.068 33.2588 27.4957 33.4277 26.907 33.4812C26.3184 33.5347 25.7249 33.4717 25.1606 33.2958C24.5963 33.1199 24.0722 32.8346 23.6182 32.456Z" fill="black"/>
<path fill-rule="evenodd" clip-rule="evenodd" d="M35 17C35 18.1935 34.5259 19.3381 33.682 20.182C32.8381 21.0259 31.6935 21.5 30.5 21.5H6.5C5.30653 21.5 4.16193 21.0259 3.31802 20.182C2.47411 19.3381 2 18.1935 2 17C2 15.8065 2.47411 14.6619 3.31802 13.818C4.16193 12.9741 5.30653 12.5 6.5 12.5H30.5C31.6935 12.5 32.8381 12.9741 33.682 13.818C34.5259 14.6619 35 15.8065 35 17Z" fill="black"/>
</g>
<path fill-rule="evenodd" clip-rule="evenodd" d="M21.0413 0.848372C21.3469 0.593875 21.7411 0.471137 22.1371 0.507141C22.5331 0.543145 22.8987 0.734942 23.1533 1.04037L33.1523 13.0404C33.3957 13.3471 33.5095 13.7369 33.4694 14.1264C33.4293 14.516 33.2384 14.8744 32.9376 15.125C32.6368 15.3757 32.2498 15.4988 31.8594 15.4681C31.4691 15.4373 31.1062 15.2551 30.8483 14.9604L20.8493 2.96037C20.5949 2.6548 20.4721 2.26067 20.5081 1.86462C20.5441 1.46858 20.7359 1.10305 21.0413 0.848372Z" fill="black"/>
<path fill-rule="evenodd" clip-rule="evenodd" d="M21.0413 27.1522C20.7359 26.8975 20.5441 26.532 20.5081 26.1359C20.4721 25.7399 20.5949 25.3458 20.8493 25.0402L30.8483 13.0402C31.1062 12.7455 31.4691 12.5632 31.8594 12.5325C32.2498 12.5017 32.6368 12.6248 32.9376 12.8755C33.2384 13.1262 33.4293 13.4846 33.4694 13.8741C33.5095 14.2636 33.3957 14.6534 33.1523 14.9602L23.1533 26.9602C22.8987 27.2656 22.5331 27.4574 22.1371 27.4934C21.7411 27.5294 21.3469 27.4067 21.0413 27.1522Z" fill="black"/>
<path fill-rule="evenodd" clip-rule="evenodd" d="M33.5 14C33.5 14.3978 33.342 14.7794 33.0607 15.0607C32.7794 15.342 32.3978 15.5 32 15.5H2C1.60218 15.5 1.22064 15.342 0.93934 15.0607C0.658036 14.7794 0.5 14.3978 0.5 14C0.5 13.6022 0.658036 13.2206 0.93934 12.9393C1.22064 12.658 1.60218 12.5 2 12.5H32C32.3978 12.5 32.7794 12.658 33.0607 12.9393C33.342 13.2206 33.5 13.6022 33.5 14Z" fill="black"/>
</svg>
