<svg width="60" height="60" viewBox="0 0 60 60" fill="none" xmlns="http://www.w3.org/2000/svg">
<g opacity="0.2">
<g opacity="0.2">
<path fill-rule="evenodd" clip-rule="evenodd" d="M36.6182 17.5441C37.0722 17.1656 37.5963 16.8803 38.1606 16.7044C38.7249 16.5285 39.3184 16.4655 39.907 16.519C40.4957 16.5724 41.068 16.7414 41.5914 17.0161C42.1147 17.2909 42.5788 17.666 42.9572 18.1201L52.9562 30.1201C53.3513 30.5717 53.6521 31.0978 53.8408 31.6674C54.0296 32.237 54.1026 32.8385 54.0554 33.4367C54.0083 34.0349 53.842 34.6176 53.5663 35.1506C53.2906 35.6835 52.9111 36.156 52.4502 36.5401C51.9892 36.9242 51.4561 37.2123 50.8821 37.3874C50.3082 37.5624 49.705 37.6209 49.1082 37.5594C48.5113 37.4979 47.9327 37.3177 47.4065 37.0293C46.8803 36.7409 46.4171 36.3502 46.0442 35.8801L36.0422 23.8801C35.2787 22.9634 34.9105 21.781 35.0185 20.5929C35.1265 19.4048 35.7019 18.3082 36.6182 17.5441Z" fill="black"/>
<path fill-rule="evenodd" clip-rule="evenodd" d="M36.6182 48.456C35.7019 47.692 35.1265 46.5954 35.0185 45.4073C34.9105 44.2192 35.2787 43.0368 36.0422 42.12L46.0442 30.12C46.8177 29.2359 47.9063 28.6892 49.0774 28.5969C50.2486 28.5046 51.4094 28.874 52.3119 29.626C53.2144 30.3781 53.787 31.4533 53.9074 32.6219C54.0277 33.7904 53.6864 34.9598 52.9562 35.88L42.9572 47.88C42.5788 48.3342 42.1147 48.7093 41.5914 48.9841C41.068 49.2588 40.4957 49.4277 39.907 49.4812C39.3184 49.5347 38.7249 49.4717 38.1606 49.2958C37.5963 49.1199 37.0722 48.8346 36.6182 48.456Z" fill="black"/>
<path fill-rule="evenodd" clip-rule="evenodd" d="M48 33C48 34.1935 47.5259 35.3381 46.682 36.182C45.8381 37.0259 44.6935 37.5 43.5 37.5H19.5C18.3065 37.5 17.1619 37.0259 16.318 36.182C15.4741 35.3381 15 34.1935 15 33C15 31.8065 15.4741 30.6619 16.318 29.818C17.1619 28.9741 18.3065 28.5 19.5 28.5H43.5C44.6935 28.5 45.8381 28.9741 46.682 29.818C47.5259 30.6619 48 31.8065 48 33Z" fill="black"/>
</g>
<path fill-rule="evenodd" clip-rule="evenodd" d="M34.0413 16.8484C34.3469 16.5939 34.7411 16.4711 35.1371 16.5071C35.5331 16.5431 35.8987 16.7349 36.1533 17.0404L46.1523 29.0404C46.3957 29.3471 46.5095 29.7369 46.4694 30.1264C46.4293 30.516 46.2384 30.8744 45.9376 31.125C45.6368 31.3757 45.2498 31.4988 44.8594 31.4681C44.4691 31.4373 44.1062 31.2551 43.8483 30.9604L33.8493 18.9604C33.5949 18.6548 33.4721 18.2607 33.5081 17.8646C33.5441 17.4686 33.7359 17.103 34.0413 16.8484Z" fill="black"/>
<path fill-rule="evenodd" clip-rule="evenodd" d="M34.0413 43.1522C33.7359 42.8975 33.5441 42.532 33.5081 42.1359C33.4721 41.7399 33.5949 41.3458 33.8493 41.0402L43.8483 29.0402C44.1062 28.7455 44.4691 28.5632 44.8594 28.5325C45.2498 28.5017 45.6368 28.6248 45.9376 28.8755C46.2384 29.1262 46.4293 29.4846 46.4694 29.8741C46.5095 30.2636 46.3957 30.6534 46.1523 30.9602L36.1533 42.9602C35.8987 43.2656 35.5331 43.4574 35.1371 43.4934C34.7411 43.5294 34.3469 43.4067 34.0413 43.1522Z" fill="black"/>
<path fill-rule="evenodd" clip-rule="evenodd" d="M46.5 30C46.5 30.3978 46.342 30.7794 46.0607 31.0607C45.7794 31.342 45.3978 31.5 45 31.5H15C14.6022 31.5 14.2206 31.342 13.9393 31.0607C13.658 30.7794 13.5 30.3978 13.5 30C13.5 29.6022 13.658 29.2206 13.9393 28.9393C14.2206 28.658 14.6022 28.5 15 28.5H45C45.3978 28.5 45.7794 28.658 46.0607 28.9393C46.342 29.2206 46.5 29.6022 46.5 30Z" fill="black"/>
</g>
</svg>
