<svg width="151" height="32" viewBox="0 0 151 32" fill="none" xmlns="http://www.w3.org/2000/svg">
<path d="M0.0292969 0H15.2528V15.2062H0.0292969V0Z" fill="#F25022"/>
<path d="M16.8423 0H32.0658V15.2062H16.8423V0Z" fill="#7FBA00"/>
<path d="M0.0292969 16.7939H15.2528V32.0001H0.0292969V16.7939Z" fill="#00A4EF"/>
<path d="M16.8423 16.7939H32.0658V32.0001H16.8423V16.7939Z" fill="#FFB900"/>
<path d="M53.3904 18.9645L52.4964 21.4947H52.4219C52.2729 20.9242 51.9997 20.056 51.5527 19.0141L46.7596 6.9831H42.0659V26.1583H45.1702V14.3257C45.1702 13.5815 45.1702 12.7381 45.1454 11.6963C45.1206 11.1753 45.0709 10.7784 45.0461 10.4808H45.1206C45.2696 11.225 45.4434 11.7707 45.5676 12.118L51.3292 26.1087H53.5146L59.2265 11.9939C59.3507 11.6715 59.4749 11.0265 59.599 10.4808H59.6735C59.599 11.8947 59.5494 13.1598 59.5245 13.9288V26.0839H62.8275V6.93348H58.3076L53.3904 18.9645ZM65.9566 12.3412H69.1851V26.0839H65.9566V12.3412ZM67.5957 6.53659C67.0494 6.53659 66.6023 6.73503 66.2298 7.08232C65.8573 7.42961 65.6586 7.87612 65.6586 8.42186C65.6586 8.94279 65.8573 9.3893 66.2298 9.73659C66.6023 10.0839 67.0494 10.2575 67.5957 10.2575C68.1421 10.2575 68.6139 10.0591 68.9616 9.73659C69.3341 9.3893 69.5328 8.94279 69.5328 8.42186C69.5328 7.90093 69.3341 7.45441 68.9616 7.08232C68.6388 6.73503 68.1669 6.53659 67.5957 6.53659ZM80.6338 12.2172C80.0378 12.0932 79.4169 12.0188 78.8209 12.0188C77.3557 12.0188 76.0146 12.3412 74.897 12.9862C73.7795 13.6312 72.8855 14.5242 72.3143 15.6405C71.7182 16.7815 71.4202 18.0963 71.4202 19.6095C71.4202 20.9242 71.7182 22.0901 72.2894 23.1567C72.8606 24.1986 73.6553 25.042 74.7232 25.6126C75.7414 26.1831 76.9335 26.4808 78.2745 26.4808C79.8143 26.4808 81.1305 26.1583 82.1735 25.5629L82.1984 25.5381V22.5614L82.0742 22.6606C81.6023 23.0079 81.056 23.3056 80.5096 23.4792C79.9384 23.6777 79.4169 23.7769 78.9699 23.7769C77.6785 23.7769 76.6603 23.4048 75.9401 22.5862C75.1951 21.7924 74.8225 20.7009 74.8225 19.3366C74.8225 17.9226 75.1951 16.8064 75.9649 15.9877C76.7348 15.1691 77.753 14.7474 78.9947 14.7474C80.0378 14.7474 81.1057 15.0947 82.0742 15.7893L82.1984 15.8885V12.7381L82.1735 12.7133C81.7514 12.5397 81.2795 12.3412 80.6338 12.2172ZM91.2878 12.118C90.4931 12.118 89.748 12.366 89.1023 12.887C88.556 13.3335 88.1835 13.9784 87.8606 14.7474H87.8358V12.3412H84.6073V26.0839H87.8358V19.0637C87.8358 17.873 88.0841 16.8808 88.6305 16.1614C89.1768 15.4172 89.8722 15.0451 90.7166 15.0451C91.0146 15.0451 91.3126 15.1195 91.6851 15.1691C92.0328 15.2684 92.2812 15.3676 92.455 15.4916L92.5792 15.5908V12.366L92.5047 12.3412C92.2812 12.1924 91.8341 12.118 91.2878 12.118ZM100.079 12.0436C97.8192 12.0436 96.0063 12.7133 94.7398 14.0281C93.4484 15.3428 92.8275 17.1536 92.8275 19.4358C92.8275 21.5691 93.4732 23.3056 94.7149 24.5707C95.9566 25.811 97.6454 26.456 99.7563 26.456C101.967 26.456 103.73 25.7862 104.996 24.4467C106.288 23.1071 106.909 21.3211 106.909 19.1133C106.909 16.9304 106.313 15.1939 105.096 13.9288C103.928 12.6637 102.215 12.0436 100.079 12.0436ZM102.662 22.611C102.066 23.38 101.122 23.7521 99.955 23.7521C98.7878 23.7521 97.8441 23.38 97.1735 22.5614C96.503 21.7924 96.1802 20.6761 96.1802 19.2622C96.1802 17.7986 96.5278 16.6823 97.1735 15.8885C97.8441 15.0947 98.7629 14.6978 99.9302 14.6978C101.073 14.6978 101.967 15.0699 102.612 15.8389C103.258 16.6079 103.606 17.7242 103.606 19.1877C103.556 20.6761 103.283 21.842 102.662 22.611ZM114.111 18.0467C113.092 17.625 112.447 17.3025 112.149 17.0296C111.9 16.7815 111.776 16.4343 111.776 15.9877C111.776 15.6157 111.925 15.2436 112.298 14.9955C112.67 14.7474 113.092 14.6234 113.713 14.6234C114.26 14.6234 114.831 14.7226 115.377 14.8715C115.924 15.0203 116.42 15.2436 116.818 15.5412L116.942 15.6405V12.6141L116.867 12.5893C116.495 12.4405 115.998 12.2916 115.402 12.1676C114.806 12.0684 114.26 12.0188 113.813 12.0188C112.273 12.0188 111.006 12.3908 110.013 13.2095C109.02 13.9784 108.548 15.0203 108.548 16.2358C108.548 16.8808 108.647 17.4513 108.871 17.9226C109.094 18.3939 109.417 18.8405 109.864 19.2126C110.311 19.5598 110.957 19.9567 111.851 20.3288C112.596 20.6513 113.167 20.8994 113.515 21.0978C113.862 21.2963 114.086 21.5195 114.26 21.6932C114.384 21.8916 114.458 22.1397 114.458 22.4622C114.458 23.38 113.763 23.8265 112.347 23.8265C111.801 23.8265 111.23 23.7273 110.559 23.504C109.889 23.2808 109.268 22.9583 108.746 22.5862L108.622 22.487V25.6374L108.697 25.6622C109.169 25.8854 109.74 26.0343 110.435 26.2079C111.13 26.3319 111.751 26.4312 112.298 26.4312C113.962 26.4312 115.328 26.0591 116.296 25.2405C117.289 24.4467 117.811 23.4296 117.811 22.1149C117.811 21.1971 117.563 20.3784 117.016 19.7583C116.296 19.1629 115.402 18.5428 114.111 18.0467ZM126.329 12.0436C124.069 12.0436 122.256 12.7133 120.99 14.0281C119.723 15.3428 119.078 17.1536 119.078 19.4358C119.078 21.5691 119.723 23.3056 120.965 24.5707C122.207 25.811 123.895 26.456 126.006 26.456C128.217 26.456 129.98 25.7862 131.246 24.4467C132.538 23.1071 133.159 21.3211 133.159 19.1133C133.159 16.9304 132.563 15.1939 131.346 13.9288C130.178 12.6637 128.465 12.0436 126.329 12.0436ZM128.887 22.611C128.291 23.38 127.347 23.7521 126.18 23.7521C124.988 23.7521 124.069 23.38 123.399 22.5614C122.728 21.7924 122.405 20.6761 122.405 19.2622C122.405 17.7986 122.753 16.6823 123.399 15.8885C124.069 15.0947 124.988 14.6978 126.155 14.6978C127.273 14.6978 128.192 15.0699 128.837 15.8389C129.483 16.6079 129.831 17.7242 129.831 19.1877C129.831 20.6761 129.508 21.842 128.887 22.611ZM150.419 14.9955V12.3412H147.165V8.27302L147.066 8.29783L143.986 9.21566L143.912 9.24046V12.3412H139.044V10.6048C139.044 9.811 139.243 9.19085 139.591 8.79395C139.938 8.39705 140.46 8.1986 141.106 8.1986C141.553 8.1986 142.025 8.29783 142.546 8.52108L142.67 8.5955V5.7924L142.596 5.76759C142.149 5.61876 141.553 5.51953 140.783 5.51953C139.814 5.51953 138.97 5.74279 138.2 6.11488C137.43 6.53659 136.859 7.10713 136.437 7.87612C136.015 8.62031 135.791 9.46372 135.791 10.4312V12.3412H133.531V14.9707H135.791V26.0839H139.044V14.9955H143.912V22.0653C143.912 24.9676 145.278 26.4312 148.01 26.4312C148.457 26.4312 148.929 26.3567 149.376 26.2823C149.847 26.1831 150.195 26.0591 150.394 25.9598L150.419 25.935V23.2808L150.294 23.38C150.096 23.504 149.922 23.6033 149.624 23.6777C149.376 23.7521 149.152 23.7769 148.978 23.7769C148.332 23.7769 147.885 23.6281 147.563 23.256C147.265 22.9087 147.116 22.3381 147.116 21.4947V14.9955H150.419Z" fill="#737373"/>
</svg>
