<svg width="45" height="45" viewBox="0 0 45 45" fill="none" xmlns="http://www.w3.org/2000/svg">
<g clip-path="url(#clip0_355_405)">
<path d="M15 30H30M22.5 22.5V30M11.25 11.25V9.375C11.25 3.75 14.0625 1.875 18.75 1.875H26.25C30.9375 1.875 33.75 4.6875 33.75 9.375V11.25C39.375 11.25 43.125 15 43.125 20.625C43.125 26.25 39.375 30 33.75 30M11.25 11.25H26.25M11.25 11.25C5.625 11.25 1.875 14.0625 1.875 20.625C1.875 27.1875 5.625 30 11.25 30M15 43.125H30V22.5H15V43.125Z" stroke="#195359" stroke-width="3"/>
</g>
<defs>
<clipPath id="clip0_355_405">
<rect width="45" height="45" fill="white"/>
</clipPath>
</defs>
</svg>
