<svg width="154" height="45" viewBox="0 0 154 45" fill="none" xmlns="http://www.w3.org/2000/svg">
<path d="M15.1189 44.9436C15.0908 44.9152 15.0627 44.8868 15.0346 44.8584C14.5007 44.1771 11.185 39.9752 7.78497 34.6092C6.7734 32.9058 6.09902 31.543 6.23951 31.2023C6.5767 30.2938 12.4775 29.8111 14.2759 30.6345C14.8379 30.89 14.8098 31.2023 14.8098 31.401C14.8098 32.2244 14.7817 34.4389 14.7817 34.4389C14.7817 34.8932 15.147 35.2622 15.5965 35.2622C16.0461 35.2622 16.4114 34.8932 16.4114 34.4389V28.931C16.4114 28.4484 15.9056 28.3348 15.7932 28.3064C14.8379 28.3064 12.9271 28.3064 10.8478 28.3064C6.29571 28.3064 5.25604 28.5051 4.49736 27.9941C2.81141 26.8868 0.0857946 19.42 0.00149704 15.2181C-0.0828005 9.28432 3.4015 4.14552 8.29075 1.6187C10.342 0.56823 12.6461 0.000406049 15.0908 0.000406049C22.8742 -0.0563763 29.2527 5.84899 30.0957 13.4578C30.0957 13.4578 30.0957 13.4578 30.0957 13.4862C30.2643 15.3316 20.2329 15.7291 18.2379 15.1897C17.9288 15.1045 17.8445 14.7922 17.8445 14.6502C17.8445 13.2591 17.8445 9.31271 17.8445 9.31271C17.8445 8.85845 17.4792 8.48937 17.0296 8.48937C16.58 8.48937 16.2147 8.85845 16.2147 9.31271L16.2428 16.5525C16.2428 17.0067 16.6362 17.1203 16.7486 17.1487C17.8726 17.1487 20.5139 17.1487 22.9866 17.1487C26.3023 17.1487 27.7073 17.5461 28.6346 18.2559C29.2527 18.7386 29.4775 19.6471 29.2808 20.8111C27.3701 31.3726 15.5684 44.4042 15.1189 44.9436ZM47.1238 20.3853C50.1023 21.6629 51.9569 23.1108 51.9569 26.2338C51.9569 29.442 49.5403 31.5146 45.8312 31.5146C42.8246 31.5146 40.4081 30.1234 39.1998 27.7386L39.0032 27.3411L42.5436 25.2685L42.7684 25.666C43.5552 26.972 44.4544 27.5398 45.747 27.5398C46.8709 27.5398 47.6015 27.0288 47.6015 26.2906C47.6015 25.4673 47.0676 25.155 45.3817 24.4168L44.5387 24.0477C42.2627 23.054 40.1552 21.7196 40.1552 18.3979C40.1552 15.4452 42.4032 13.3726 45.6346 13.3726C48.0792 13.3726 49.737 14.3379 50.8891 16.3821L51.1139 16.7512L47.6858 18.9941L47.461 18.5682C46.899 17.5178 46.337 17.319 45.6627 17.319C44.9321 17.319 44.4825 17.7165 44.4825 18.3411C44.4825 19.0509 44.8197 19.3632 46.3089 20.0162L47.1238 20.3853ZM72.2164 20.9815L74.7172 13.9405H79.0164L72.6379 31.8269H71.6825L67.8329 23.4231C67.6643 23.0256 67.4676 22.5714 67.299 22.1171C67.1304 22.543 66.9337 23.0256 66.7651 23.4231L62.7751 31.7985H61.8197L55.3569 13.9121H59.937L62.466 20.9531C62.6346 21.4073 62.8032 21.9468 62.9436 22.4578C63.1122 21.9468 63.3089 21.379 63.5337 20.8963L66.8494 13.7417H67.7767L71.1486 20.8963C71.3734 21.3506 71.5701 21.9184 71.7387 22.4578C71.9073 21.9752 72.0759 21.4357 72.2164 20.9815ZM84.0461 31.2875V13.5714H88.3734V31.2875H84.0461ZM102.592 25.3253V21.3506H110.628V29.3001L110.459 29.442C109.532 30.2086 107.087 31.4862 103.8 31.4862C98.2081 31.4862 94.3304 27.7386 94.3304 22.401C94.3304 17.1487 98.0957 13.3443 103.266 13.3443C106.104 13.3443 108.211 14.1676 109.644 15.8143L109.925 16.1266L106.975 19.0793L106.666 18.7386C105.851 17.8868 104.98 17.3474 103.266 17.3474C100.625 17.3474 98.7701 19.42 98.7701 22.3726C98.7701 25.4673 100.737 27.4547 103.8 27.4547C104.811 27.4547 105.879 27.2843 106.582 27.0004V25.2969H102.592V25.3253ZM124.565 25.3253V21.3506H132.602V29.3001L132.433 29.442C131.506 30.2086 129.061 31.4862 125.773 31.4862C120.182 31.4862 116.304 27.7386 116.304 22.401C116.304 17.1487 120.069 13.3443 125.24 13.3443C128.078 13.3443 130.185 14.1676 131.618 15.8143L131.899 16.1266L128.949 19.0793L128.64 18.7386C127.825 17.8868 126.954 17.3474 125.24 17.3474C122.598 17.3474 120.744 19.42 120.744 22.3726C120.744 25.4673 122.711 27.4547 125.801 27.4547C126.813 27.4547 127.881 27.2843 128.583 27.0004V25.2969H124.565V25.3253ZM148.506 13.5714H153.03L146.792 25.3537V31.2875H142.436V25.6092L135.833 13.5714H140.666L143.729 19.2212C144.066 19.8458 144.403 20.6408 144.656 21.3222C144.909 20.6692 145.246 19.8742 145.555 19.2496L148.506 13.5714Z" fill="#FC8019"/>
</svg>
