<svg width="150" height="34" viewBox="0 0 150 34" fill="none" xmlns="http://www.w3.org/2000/svg">
<path d="M46.8429 5.21024C46.2928 3.15954 44.6719 1.54428 42.6136 0.996197C38.8828 0.000118256 23.9232 0.000114441 23.9232 0.000114441C23.9232 0.000114441 8.9637 0.000118256 5.23292 0.996197C3.17478 1.54428 1.55366 3.15954 1.00359 5.21024C0.00390625 8.92752 0.00390625 16.683 0.00390625 16.683C0.00390625 16.683 0.00390625 24.4389 1.00359 28.156C1.55366 30.2065 3.17478 31.8219 5.23292 32.3698C8.9637 33.3662 23.9232 33.3662 23.9232 33.3662C23.9232 33.3662 38.8828 33.3662 42.6136 32.3698C44.6719 31.8219 46.2928 30.2065 46.8429 28.156C47.8427 24.4389 47.8427 16.683 47.8427 16.683C47.8427 16.683 47.8427 8.92752 46.8429 5.21024Z" fill="#ED1D24"/>
<path d="M19.1392 23.833L31.5676 16.6832L19.1392 9.53324V23.833Z" fill="white"/>
<path d="M74.7446 27.082C75.0064 26.4008 75.138 25.2873 75.138 23.7421V17.2311C75.138 15.7314 75.0064 14.6352 74.7446 13.9419C74.4823 13.2489 74.0204 12.9021 73.3592 12.9021C72.7205 12.9021 72.2696 13.2489 72.0078 13.9419C71.7455 14.6352 71.6144 15.7314 71.6144 17.2311V23.7421C71.6144 25.2873 71.7396 26.4008 71.9908 27.082C72.2413 27.7641 72.6973 28.1046 73.3592 28.1046C74.0204 28.1046 74.4823 27.7641 74.7446 27.082ZM69.4423 30.3545C68.4952 29.719 67.8223 28.7301 67.4237 27.3889C67.0244 26.0486 66.8252 24.2646 66.8252 22.0375V19.0037C66.8252 16.7541 67.0528 14.9473 67.5092 13.584C67.9652 12.2205 68.6775 11.2266 69.6474 10.6015C70.6165 9.97675 71.8881 9.66408 73.462 9.66408C75.0127 9.66408 76.2555 9.98244 77.1908 10.6185C78.1256 11.2547 78.81 12.2492 79.2435 13.601C79.6763 14.9533 79.8933 16.7541 79.8933 19.0037V22.0375C79.8933 24.2646 79.6822 26.0544 79.2605 27.4062C78.8383 28.7583 78.154 29.747 77.2077 30.3716C76.261 30.9964 74.9785 31.3091 73.3592 31.3091C71.6939 31.3091 70.3881 30.9906 69.4423 30.3545Z" fill="#252323"/>
<path d="M142.702 13.2926C142.463 13.5881 142.302 14.071 142.223 14.7411C142.142 15.4117 142.103 16.4284 142.103 17.7919V19.2917H145.558V17.7919C145.558 16.4514 145.512 15.4345 145.421 14.7411C145.33 14.0482 145.165 13.5599 144.926 13.2756C144.686 12.9915 144.315 12.8494 143.814 12.8494C143.312 12.8494 142.941 12.9974 142.702 13.2926ZM142.103 22.087V23.1437C142.103 24.4848 142.142 25.4902 142.223 26.1603C142.302 26.8308 142.467 27.3194 142.719 27.6264C142.97 27.9328 143.357 28.0865 143.882 28.0865C144.589 28.0865 145.074 27.8137 145.336 27.2681C145.598 26.7228 145.74 25.8139 145.763 24.541L149.835 24.7798C149.857 24.9622 149.869 25.2121 149.869 25.5296C149.869 27.4615 149.339 28.9047 148.278 29.859C147.218 30.8131 145.718 31.2905 143.779 31.2905C141.453 31.2905 139.822 30.5636 138.887 29.1088C137.952 27.6551 137.484 25.4052 137.484 22.3598V18.7122C137.484 15.5763 137.969 13.2873 138.939 11.8437C139.908 10.4008 141.567 9.67926 143.916 9.67926C145.535 9.67926 146.778 9.97474 147.645 10.5654C148.511 11.1567 149.122 12.0771 149.475 13.3265C149.829 14.5765 150.006 16.3038 150.006 18.5078V22.087H142.103Z" fill="#252323"/>
<path d="M57.9459 21.6956L52.5747 2.36808H57.2615L59.143 11.1285C59.6222 13.2879 59.9755 15.1285 60.2035 16.6505H60.3405C60.5 15.5599 60.8536 13.7308 61.401 11.1627L63.351 2.36808H68.0378L62.5985 21.6956V30.9678H57.9459V21.6956Z" fill="#252323"/>
<path d="M95.1366 10.0728V30.968H91.4417L91.031 28.4116H90.9286C89.9249 30.343 88.4195 31.3086 86.4127 31.3086C85.0215 31.3086 83.9953 30.8546 83.3337 29.9453C82.6722 29.0369 82.3418 27.6161 82.3418 25.6845V10.0728H87.0629V25.4117C87.0629 26.344 87.1656 27.0084 87.3708 27.4059C87.576 27.8039 87.9182 28.0024 88.397 28.0024C88.8077 28.0024 89.2011 27.8778 89.5772 27.6272C89.9536 27.3773 90.2328 27.0598 90.4155 26.6733V10.0728H95.1366Z" fill="#252323"/>
<path d="M119.352 10.0728V30.968H115.658L115.247 28.4116H115.145C114.14 30.343 112.635 31.3086 110.629 31.3086C109.237 31.3086 108.211 30.8546 107.55 29.9453C106.888 29.0369 106.558 27.6161 106.558 25.6845V10.0728H111.279V25.4117C111.279 26.344 111.381 27.0084 111.586 27.4059C111.792 27.8039 112.134 28.0024 112.613 28.0024C113.024 28.0024 113.417 27.8778 113.793 27.6272C114.169 27.3773 114.449 27.0598 114.631 26.6733V10.0728H119.352Z" fill="#252323"/>
<path d="M107.965 6.15249H103.278V30.9678H98.66V6.15249H93.9731V2.36871H107.965V6.15249Z" fill="#252323"/>
<path d="M130.65 21.936C130.65 23.4587 130.587 24.6518 130.462 25.515C130.337 26.3791 130.125 26.9925 129.829 27.3557C129.532 27.7194 129.133 27.9011 128.632 27.9011C128.244 27.9011 127.884 27.8106 127.554 27.6283C127.223 27.4466 126.956 27.1741 126.75 26.8101V14.948C126.909 14.3803 127.183 13.9142 127.571 13.5506C127.959 13.1875 128.38 13.0052 128.837 13.0052C129.316 13.0052 129.686 13.1928 129.949 13.5675C130.211 13.9424 130.393 14.5731 130.496 15.4596C130.599 16.3456 130.65 17.6069 130.65 19.243V21.936ZM134.978 13.4128C134.692 12.0951 134.23 11.1408 133.592 10.5495C132.953 9.95911 132.075 9.66347 130.958 9.66347C130.091 9.66347 129.282 9.90791 128.529 10.3962C127.777 10.885 127.195 11.527 126.784 12.3223H126.75L126.75 1.31205H122.2V30.9674H126.1L126.579 28.9908H126.681C127.046 29.695 127.593 30.2518 128.324 30.6609C129.053 31.0698 129.863 31.2744 130.753 31.2744C132.349 31.2744 133.523 30.5413 134.276 29.0758C135.029 27.6099 135.405 25.3208 135.405 22.2073V18.9009C135.405 16.5605 135.262 14.7312 134.978 13.4128Z" fill="#252323"/>
</svg>
