<svg width="141" height="30" viewBox="0 0 141 30" fill="none" xmlns="http://www.w3.org/2000/svg">
<path d="M116.528 22.6566L115.68 27.9201C114.365 28.6331 111.905 29.6589 109.062 29.6589C104.227 29.6589 103.251 27.0725 104.014 21.5861L105.245 12.7552H102.866L103.539 7.03905L106.136 6.91301L107.111 2.76485L114.45 -0.000238419L113.517 6.91301H118.565C118.395 7.6266 117.801 11.5509 117.632 12.7552H112.711L111.608 20.9172C111.311 23.0134 111.481 23.7718 112.923 23.7718C113.983 23.7718 115.553 23.1474 116.528 22.6566ZM78.4212 13.692C78.9729 9.90056 78.6753 6.46687 74.4764 6.46687C71.4226 6.46687 68.1136 9.05357 65.7804 13.3799C66.2889 9.81151 65.9924 6.46687 61.8352 6.46687C58.6962 6.46687 55.3024 9.18744 52.9699 13.692C53.5632 10.7484 53.436 7.40335 53.2664 6.68935C50.8487 7.09171 48.7279 7.31387 45.7581 7.40335C45.843 9.4552 45.7153 12.1311 45.3337 14.673L44.3583 21.3635C43.9766 23.9945 43.5525 27.0286 43.128 28.9457H51.0183C51.0604 27.7859 51.3572 25.9573 51.5697 24.3514L52.2482 19.7582C52.7999 16.7693 55.1755 13.2464 56.9995 13.2464C58.0601 13.2464 58.0173 14.2721 57.7208 16.1901L56.9571 21.3635C56.5754 23.9945 56.1509 27.0286 55.7268 28.9457H63.7016C63.744 27.7859 63.9984 25.9573 64.2109 24.3514L64.8894 19.7582C65.4411 16.7693 67.8164 13.2464 69.6403 13.2464C70.7013 13.2464 70.6585 14.2268 70.4885 15.5655L68.5847 28.9457H75.8624L78.4212 13.692ZM140.029 16.0806C140.029 23.5818 134.743 29.8174 127.737 29.8174C121.462 29.8174 118.24 25.5245 118.24 19.9213C118.24 12.466 123.569 6.22976 130.532 6.22976C136.892 6.22976 140.029 10.5224 140.029 16.0806ZM125.876 19.7739C125.876 22.495 126.766 23.8776 128.293 23.8776C130.33 23.8776 131.941 20.5776 131.941 16.563C131.941 13.7976 131.05 12.4596 129.566 12.4596C127.53 12.4596 125.876 15.7156 125.876 19.7739ZM42.7464 16.2358C42.7464 23.6391 37.5286 29.7942 30.6144 29.7942C24.4207 29.7942 21.2392 25.5572 21.2392 20.027C21.2392 12.6682 26.4994 6.5132 33.3718 6.5132C39.6498 6.5132 42.7464 10.7503 42.7464 16.2358ZM28.8749 19.7739C28.8749 22.495 29.7659 23.8776 31.2926 23.8776C33.3293 23.8776 34.9409 20.5776 34.9409 16.563C34.9409 13.7976 34.0503 12.4596 32.5656 12.4596C30.5292 12.4596 28.8749 15.7156 28.8749 19.7739ZM21.3666 7.04642L21.2392 11.1054L10.6769 22.6127C15.0884 22.6127 17.8879 22.5671 19.5002 22.4787C19.0335 24.664 18.6517 26.4481 18.2701 29.123C16.1491 28.9457 12.84 28.9013 9.53163 28.9013C5.84108 28.9013 2.61707 28.9457 0.0292969 29.123L0.114384 25.021L10.6769 13.5581C6.05282 13.5581 4.35632 13.6027 2.44716 13.6474C2.87125 11.5962 3.16853 9.32117 3.46551 7.04642C6.81663 7.18015 8.13153 7.22466 12.5012 7.22466C16.5307 7.22466 18.8211 7.18015 21.3666 7.04642Z" fill="#100F0D"/>
<path d="M86.4209 29.238C82.6524 29.7019 80.1703 28.2032 79.4247 24.7916C78.9563 22.6456 79.6051 20.203 80.7413 18.7431C82.261 16.8363 84.7404 15.6107 87.7626 15.2391C90.1968 14.9398 92.2463 15.0879 94.164 15.4516L94.2434 15.1217C94.2977 14.5952 94.3525 14.0683 94.2758 13.4375C94.0776 11.8222 92.8042 10.8588 89.6644 11.2448C87.5448 11.5058 85.5269 12.274 83.9605 13.1472L82.4392 8.53409C84.5596 7.31297 87.2359 6.38414 90.2971 6.00743C96.1456 5.28771 100.254 7.15703 100.78 11.4528C100.92 12.5961 100.937 13.808 100.793 14.9052C100.041 20.2179 99.5599 24.2143 99.3494 26.8953C99.3166 27.3086 99.3197 28.0208 99.3567 29.0332L92.0998 29.0266C92.254 28.6062 92.3924 28.0402 92.5158 27.3288C92.5964 26.8601 92.655 26.2679 92.6924 25.553C91.1572 27.6617 89.0506 28.9145 86.4209 29.238ZM88.6963 25.1597C91.3658 24.8313 93.2036 22.25 93.6458 19.6755L93.7198 18.9858C92.5729 18.7273 90.9151 18.5314 89.3059 18.7295C87.7749 18.9182 86.4988 19.5551 85.8145 20.4795C85.2986 21.1424 85.0369 21.9349 85.1525 22.8803C85.3268 24.2994 86.8909 25.3817 88.6963 25.1597Z" fill="#100F0D"/>
</svg>
