<svg width="19" height="19" viewBox="0 0 19 19" fill="none" xmlns="http://www.w3.org/2000/svg">
<path d="M12 8.83348V10.6665M13.8335 8.83348H4.6665M12.9165 5.16652H5.58346V2.41652C5.58346 2.17344 5.68003 1.94032 5.85191 1.76844C6.02379 1.59656 6.25691 1.5 6.49998 1.5H12C12.2431 1.5 12.4762 1.59656 12.6481 1.76844C12.8199 1.94032 12.9165 2.17344 12.9165 2.41652V5.16652Z" stroke="#666666" stroke-width="1.2" stroke-linecap="round" stroke-linejoin="round"/>
<path d="M17.5 17.0835V6.08346C17.5 5.84035 17.4035 5.60718 17.2316 5.43523C17.0597 5.26328 16.8266 5.16662 16.5835 5.1665H1.91652C1.41052 5.1665 1 5.57702 1 6.08346V17.0835C1 17.5895 1.41052 18 1.91652 18H16.5835C17.0895 18 17.5 17.5895 17.5 17.0835Z" stroke="#666666" stroke-width="1.2" stroke-linecap="round" stroke-linejoin="round"/>
</svg>
