<svg width="22" height="23" viewBox="0 0 22 23" fill="none" xmlns="http://www.w3.org/2000/svg">
<g clip-path="url(#clip0_30_11355)">
<path d="M9.9796 3.58603C11.3034 3.58482 12.5977 3.97625 13.699 4.71081C14.8002 5.44536 15.6588 6.49003 16.1663 7.71267C16.6737 8.9353 16.8071 10.281 16.5495 11.5794C16.292 12.8779 15.6552 14.0708 14.7196 15.0073C13.784 15.9437 12.5917 16.5816 11.2934 16.8403C9.99522 17.099 8.64944 16.9669 7.42634 16.4606C6.20324 15.9543 5.15778 15.0966 4.42222 13.996C3.68666 12.8955 3.29405 11.6014 3.29405 10.2777C3.30207 8.50648 4.00883 6.81002 5.2607 5.557C6.51258 4.30397 8.2084 3.59567 9.9796 3.58603ZM9.9796 2.33325C8.40834 2.33325 6.87236 2.79919 5.56591 3.67213C4.25945 4.54508 3.24119 5.78583 2.63989 7.23749C2.0386 8.68915 1.88127 10.2865 2.18781 11.8276C2.49435 13.3687 3.25098 14.7842 4.36203 15.8953C5.47308 17.0063 6.88865 17.763 8.42972 18.0695C9.97079 18.376 11.5682 18.2187 13.0198 17.6174C14.4715 17.0161 15.7122 15.9978 16.5852 14.6914C17.4581 13.3849 17.924 11.849 17.924 10.2777C17.924 8.1707 17.087 6.15 15.5972 4.66013C14.1073 3.17025 12.0866 2.33325 9.9796 2.33325Z" fill="#666666"/>
<path d="M21.3888 20.8438L16.8849 16.3093L16.0171 17.171L20.521 21.7054C20.5776 21.7624 20.6448 21.8077 20.7189 21.8387C20.793 21.8697 20.8724 21.8858 20.9527 21.8861C21.033 21.8863 21.1126 21.8708 21.1869 21.8403C21.2612 21.8099 21.3287 21.7651 21.3857 21.7085C21.4427 21.6519 21.488 21.5847 21.5189 21.5106C21.5499 21.4365 21.566 21.3571 21.5663 21.2768C21.5666 21.1965 21.5511 21.1169 21.5206 21.0426C21.4901 20.9683 21.4453 20.9007 21.3888 20.8438Z" fill="#666666"/>
</g>
<defs>
<clipPath id="clip0_30_11355">
<rect width="22" height="22" fill="white" transform="translate(0 0.5)"/>
</clipPath>
</defs>
</svg>
