<svg width="16" height="19" viewBox="0 0 16 19" fill="none" xmlns="http://www.w3.org/2000/svg">
<path d="M8.00007 0.267822C10.0318 0.267822 11.9803 1.07493 13.417 2.51159C14.8537 3.94826 15.6608 5.89679 15.6608 7.92854C15.6608 11.1657 13.3861 14.6935 8.89578 18.5498C8.6461 18.7643 8.32776 18.8821 7.9986 18.8818C7.66944 18.8815 7.3513 18.7632 7.102 18.5483L6.805 18.2905C2.51343 14.5348 0.339355 11.0934 0.339355 7.92854C0.339355 5.89679 1.14646 3.94826 2.58313 2.51159C4.01979 1.07493 5.96832 0.267822 8.00007 0.267822ZM8.00007 1.44639C6.2809 1.44639 4.63214 2.12933 3.4165 3.34497C2.20087 4.56061 1.51793 6.20936 1.51793 7.92854C1.51793 10.6801 3.51993 13.8505 7.57893 17.4019L7.872 17.6557C7.90763 17.6863 7.95307 17.7032 8.00007 17.7032C8.04707 17.7032 8.09251 17.6863 8.12814 17.6557C12.3836 14.0005 14.4822 10.7453 14.4822 7.92854C14.4822 7.07729 14.3145 6.23438 13.9888 5.44793C13.663 4.66148 13.1856 3.94689 12.5836 3.34497C11.9817 2.74305 11.2671 2.26558 10.4807 1.93982C9.69423 1.61406 8.85132 1.44639 8.00007 1.44639ZM8.00007 4.98211C8.78151 4.98211 9.53095 5.29253 10.0835 5.8451C10.6361 6.39766 10.9465 7.14709 10.9465 7.92854C10.9465 8.70998 10.6361 9.45941 10.0835 10.012C9.53095 10.5645 8.78151 10.875 8.00007 10.875C7.21863 10.875 6.46919 10.5645 5.91663 10.012C5.36407 9.45941 5.05364 8.70998 5.05364 7.92854C5.05364 7.14709 5.36407 6.39766 5.91663 5.8451C6.46919 5.29253 7.21863 4.98211 8.00007 4.98211ZM8.00007 6.16068C7.5312 6.16068 7.08154 6.34693 6.75001 6.67847C6.41847 7.01001 6.23221 7.45967 6.23221 7.92854C6.23221 8.3974 6.41847 8.84706 6.75001 9.1786C7.08154 9.51014 7.5312 9.69639 8.00007 9.69639C8.46893 9.69639 8.9186 9.51014 9.25013 9.1786C9.58167 8.84706 9.76793 8.3974 9.76793 7.92854C9.76793 7.45967 9.58167 7.01001 9.25013 6.67847C8.9186 6.34693 8.46893 6.16068 8.00007 6.16068Z" fill="#666666"/>
</svg>
