<svg width="30" height="16" viewBox="0 0 30 16" fill="none" xmlns="http://www.w3.org/2000/svg">
<path d="M3.22328 0.970005C3.08803 0.842196 2.92893 0.742279 2.75506 0.675957C2.5812 0.609635 2.39597 0.578207 2.20996 0.583469C2.02395 0.588731 1.84079 0.63058 1.67095 0.706624C1.50112 0.782669 1.34792 0.891421 1.22011 1.02667C1.0923 1.16192 0.992384 1.32102 0.926062 1.49489C0.85974 1.66875 0.828312 1.85398 0.833574 2.03999C0.838836 2.226 0.880685 2.40916 0.956729 2.57899C1.03277 2.74883 1.14153 2.90203 1.27678 3.02984L14.0268 15.0715C14.2898 15.3202 14.6381 15.4587 15 15.4587C15.362 15.4587 15.7102 15.3202 15.9733 15.0715L28.7247 3.02984C28.8629 2.90287 28.9745 2.74971 29.053 2.57925C29.1315 2.40878 29.1754 2.22442 29.1821 2.03686C29.1887 1.8493 29.1581 1.66229 29.0918 1.48668C29.0256 1.31108 28.9252 1.15038 28.7963 1.01393C28.6675 0.877472 28.5128 0.767981 28.3413 0.691812C28.1697 0.615643 27.9848 0.574315 27.7971 0.570229C27.6095 0.566143 27.4229 0.599379 27.2483 0.668008C27.0736 0.736637 26.9143 0.839291 26.7796 0.970005L15 12.0937L3.22328 0.970005Z" fill="#195359"/>
</svg>
