<svg width="50" height="50" viewBox="0 0 50 50" fill="none" xmlns="http://www.w3.org/2000/svg">
<g opacity="0.2">
<path fill-rule="evenodd" clip-rule="evenodd" d="M24.3706 12.8824C24.6616 12.643 24.9975 12.4625 25.3592 12.3513C25.7209 12.24 26.1012 12.2002 26.4785 12.234C26.8558 12.2678 27.2227 12.3747 27.5581 12.5484C27.8935 12.7222 28.191 12.9594 28.4335 13.2467L34.8422 20.8358C35.0954 21.1215 35.2882 21.4542 35.4092 21.8144C35.5302 22.1746 35.577 22.555 35.5467 22.9333C35.5165 23.3117 35.4099 23.6802 35.2332 24.0172C35.0566 24.3543 34.8133 24.6531 34.5179 24.896C34.2224 25.139 33.8807 25.3212 33.5129 25.4319C33.145 25.5426 32.7584 25.5796 32.3759 25.5407C31.9933 25.5018 31.6225 25.3878 31.2852 25.2054C30.948 25.023 30.6511 24.7759 30.4121 24.4787L24.0014 16.8895C23.5121 16.3097 23.2761 15.5619 23.3453 14.8105C23.4145 14.0591 23.7833 13.3656 24.3706 12.8824Z" fill="white"/>
<path fill-rule="evenodd" clip-rule="evenodd" d="M24.3782 34.8904C23.7866 34.4034 23.4151 33.7043 23.3454 32.947C23.2756 32.1896 23.5134 31.4359 24.0063 30.8515L30.4638 23.2021C30.9632 22.6385 31.666 22.29 32.4221 22.2312C33.1782 22.1724 33.9276 22.4078 34.5103 22.8872C35.093 23.3666 35.4626 24.052 35.5404 24.7969C35.6181 25.5418 35.3977 26.2872 34.9263 26.8738L28.4707 34.5232C28.2265 34.8127 27.9268 35.0518 27.589 35.227C27.2511 35.4021 26.8815 35.5098 26.5015 35.5439C26.1214 35.578 25.7383 35.5378 25.374 35.4257C25.0097 35.3136 24.6713 35.1317 24.3782 34.8904Z" fill="white"/>
<path fill-rule="evenodd" clip-rule="evenodd" d="M31.1113 23.889C31.1113 24.6257 30.7761 25.3322 30.1794 25.8532C29.5827 26.3741 28.7734 26.6667 27.9295 26.6667L10.9598 26.6667C10.1159 26.6667 9.30663 26.3741 8.70993 25.8532C8.11322 25.3322 7.77799 24.6257 7.77799 23.889C7.77799 23.1523 8.11322 22.4457 8.70993 21.9248C9.30663 21.4039 10.1159 21.1112 10.9598 21.1112L27.9295 21.1112C28.7734 21.1112 29.5827 21.4039 30.1794 21.9248C30.7761 22.4457 31.1113 23.1523 31.1113 23.889Z" fill="white"/>
</g>
<path fill-rule="evenodd" clip-rule="evenodd" d="M28.3672 14.0401C28.6218 13.828 28.9503 13.7257 29.2803 13.7557C29.6103 13.7857 29.9149 13.9456 30.1272 14.2001L38.4597 24.2001C38.6625 24.4557 38.7573 24.7805 38.7239 25.1051C38.6904 25.4298 38.5314 25.7284 38.2807 25.9373C38.03 26.1462 37.7076 26.2488 37.3822 26.2232C37.0569 26.1975 36.7545 26.0457 36.5397 25.8001L28.2072 15.8001C27.9951 15.5454 27.8928 15.217 27.9228 14.887C27.9528 14.5569 28.1126 14.2523 28.3672 14.0401Z" fill="white"/>
<path fill-rule="evenodd" clip-rule="evenodd" d="M28.3672 35.96C28.1126 35.7478 27.9528 35.4432 27.9228 35.1131C27.8928 34.7831 27.9951 34.4547 28.2072 34.2L36.5397 24.2C36.7545 23.9544 37.0569 23.8026 37.3822 23.7769C37.7076 23.7513 38.03 23.8539 38.2807 24.0628C38.5314 24.2717 38.6904 24.5704 38.7239 24.895C38.7573 25.2196 38.6625 25.5444 38.4597 25.8L30.1272 35.8C29.9149 36.0545 29.6103 36.2144 29.2803 36.2444C28.9503 36.2744 28.6218 36.1721 28.3672 35.96Z" fill="white"/>
<path fill-rule="evenodd" clip-rule="evenodd" d="M37.5 25C37.5 25.3315 37.3683 25.6495 37.1339 25.8839C36.8995 26.1183 36.5815 26.25 36.25 26.25L12.5 26.25C12.1685 26.25 11.8505 26.1183 11.6161 25.8839C11.3817 25.6495 11.25 25.3315 11.25 25C11.25 24.6685 11.3817 24.3505 11.6161 24.1161C11.8505 23.8817 12.1685 23.75 12.5 23.75L36.25 23.75C36.5815 23.75 36.8995 23.8817 37.1339 24.1161C37.3683 24.3505 37.5 24.6685 37.5 25Z" fill="white"/>
</svg>
